<!--?xml version="1.0" encoding="utf-8"?-->
<!-- Generator: Adobe Illustrator 19.2.0, SVG Export Plug-In . SVG Version: 6.00 Build 0)  -->
<svg version="1.1" id="图层_1" xmlns="http://www.w3.org/2000/svg" xmlns:xlink="http://www.w3.org/1999/xlink" x="0px" y="0px" viewBox="0 0 128 128" style="enable-background:new 0 0 128 128;" xml:space="preserve" class="">
<style type="text/css">
	.st0{fill:none;}
	.st1{fill:#4D4D4D;}
</style>
<g id="图层_1_1_">
	<g id="delete-circle">
		<g>
			
		</g>
		<g>
			<path class="st1 active-path " d="M63.8,15.8c26.5,0,48,21.5,48,48s-21.5,48-48,48s-48-21.5-48-48S37.3,15.8,63.8,15.8 M63.8,7.8
				c-30.9,0-56,25.1-56,56s25.1,56,56,56s56-25.1,56-56S94.7,7.8,63.8,7.8L63.8,7.8z" data-original="#4D4D4D" style="fill: rgb(209, 209, 209);"></path>
		</g>
		<path class="st1 active-path " d="M84.7,85.5h-7.5c-0.6,0-1.1-0.3-1.5-0.7L63.4,70.6L51.2,84.8c-0.4,0.4-0.9,0.7-1.5,0.7h-7.5
			c-0.9,0-1.3-1-0.8-1.7l16.7-19.4L41.6,45.3c-0.6-0.6-0.1-1.7,0.8-1.7h7.5c0.6,0,1.1,0.3,1.5,0.7l12.1,14l12.1-14
			c0.4-0.4,0.9-0.7,1.5-0.7h7.5c0.9,0,1.3,1,0.8,1.7L68.7,64.5l16.7,19.4C86,84.5,85.5,85.5,84.7,85.5z" data-original="#4D4D4D" style="fill: rgb(209, 209, 209);"></path>
	</g>
</g>
<g id="图层_2">
</g>
</svg>
